<?xml version="1.0" encoding="utf-8"?>
<!-- Generator: Adobe Illustrator 23.0.2, SVG Export Plug-In . SVG Version: 6.00 Build 0)  -->
<svg version="1.1" id="Layer_1" xmlns="http://www.w3.org/2000/svg" xmlns:xlink="http://www.w3.org/1999/xlink" x="0px" y="0px"
	 viewBox="0 0 205 185" style="enable-background:new 0 0 205 185;" xml:space="preserve">
<g>
	<g>
		<path d="M119.31,124.69c0,7.98-2.48,14.01-7.44,18.1c-4.96,4.09-12.36,6.13-22.19,6.13c-19.27,0-28.9-7.74-28.9-23.21v-11.39H78
			v6.86c0,8.17,4.09,12.26,12.26,12.26c7.69,0,11.53-4.09,11.53-12.26V56.96H89.97c-2.53,0-4.28,0.15-5.25,0.44
			c-0.97,0.29-1.95,0.97-2.92,2.04c-1.66,1.46-2.48,3.75-2.48,6.86v5.69h-16.2v-8.32c0-4.09,0.29-7.15,0.88-9.2
			c0.58-2.04,1.75-4.09,3.5-6.13s3.84-3.55,6.28-4.52c2.43-0.97,5.45-1.46,9.05-1.46h36.49V124.69z"/>
	</g>
	<rect x="129.95" y="42.31" width="21.33" height="15.16"/>
</g>
</svg>
